Simulation
nRows=38
nColumns=15
endheader
time  TH_x TH_y TH_z SC_y  SC_z  SC_x  AC_y  AC_z  AC_x  GH_y  GH_z  GH_yy  EL_x  PS_y
1.4450000000000003  0.000000  0.000000  0.000000  -46.87319018534178  4.772569577733884  0.4827088231166828  50.74491445395401  12.782792332722575  7.607244263031861  2.4540967824302835  73.93661811554543  -15.423226201547426  17.20616224644928  120.000000
1.4739000000000002  0.000000  0.000000  0.000000  -46.5428606985298  4.536893047603899  0.8091886523682157  50.83468608242664  12.400219619582517  7.174403123405035  2.4503830677346037  73.43760821116933  -15.350915851249274  16.983496106501505  120.000000
1.5028000000000004  0.000000  0.000000  0.000000  -46.12550491585975  4.311566822892922  0.8945435871100259  50.88510666063265  11.942760680904247  6.859104997546854  2.482459374488312  72.35262050039339  -15.466515812452675  16.898023019299295  120.000000
1.5317000000000003  0.000000  0.000000  0.000000  -45.61740026163078  4.076959909272447  0.7407380883875697  50.89370965195796  11.450904391901409  6.652026992209015  2.5589240460906137  70.70640119149309  -15.751901243064212  16.917496908627886  120.000000
1.5606000000000002  0.000000  0.000000  0.000000  -45.01491670771323  3.816917048086799  0.36066117110295975  50.859931610852776  10.962847196277664  6.5413568243748355  2.691379229610004  68.52805122075242  -16.191948286918965  17.01140705999477  120.000000
1.5895000000000004  0.000000  0.000000  0.000000  -44.317248572967095  3.5201823604513063  -0.2239768035268253  50.78480217317331  10.509668069124931  6.515527086873369  2.8937922482697256  65.84754606571991  -16.775331484635647  17.15041158039268  120.000000
1.6184000000000003  0.000000  0.000000  0.000000  -43.52943305036378  3.1777725160084875  -0.9848898480622683  50.6718845480638  10.114987360736603  6.562097346793636  3.183152556974579  62.69592274638091  -17.49492907028173  17.306930376075016  120.000000
1.6473000000000002  0.000000  0.000000  0.000000  -42.66533133148861  2.783520322765154  -1.8892937473918265  50.52837153756185  9.79428071353884  6.667399165322569  3.5803924986386226  59.10580680579649  -18.349104147750104  17.458526411604545  120.000000
1.6762000000000004  0.000000  0.000000  0.000000  -41.747488394489025  2.3361443500871464  -2.9017947490443343  50.36372129880671  9.554921629827458  6.818004042000486  4.111989527223863  55.11146145800631  -19.34434595292353  17.585313509010962  120.000000
1.7051000000000003  0.000000  0.000000  0.000000  -40.80556342537006  1.8417224099557066  -3.986319005604248  50.18944540630652  9.396701044592904  7.0042816818655265  4.813165016595119  50.74866436654469  -20.5000228527256  17.665933460399707  120.000000
1.7340000000000004  0.000000  0.000000  0.000000  -39.87410485926375  1.3123279303440358  -5.10887057280512  50.01908284490756  9.31559078360357  7.221266482435251  5.73583039682086  46.056429299514704  -21.854467882223855  17.684861580835438  120.000000
1.7629000000000004  0.000000  0.000000  0.000000  -38.99020488310743  0.763451520867651  -6.2367678562180755  49.869082018549186  9.305780687508674  7.466294255941242  6.9602647467370495  41.07952024191713  -23.473937718921075  17.63800219248334  120.000000
1.7918000000000003  0.000000  0.000000  0.000000  -38.19077830201182  0.2150654674022602  -7.3388315309260115  49.75786862742876  9.358986982355749  7.740819986029933  8.614292297277581  35.86997630918939  -25.473250040848868  17.52574551762601  120.000000
1.8207000000000004  0.000000  0.000000  0.000000  -37.506454861880414  -0.30633093581194054  -8.386627110860612  49.69964577867577  9.463041431035158  8.050952689635107  10.911801301691941  30.487916823696054  -28.056795929577905  17.350295379629422  120.000000
1.8496000000000004  0.000000  0.000000  0.000000  -36.96163836264028  -0.7712768838787138  -9.355915132804974  49.70360868849566  9.603942505501857  8.40415729942754  14.24494692345013  25.009236368209734  -31.609943017487844  17.11774074289171  120.000000
1.8785000000000003  0.000000  0.000000  0.000000  -36.57535968204102  -1.1540414845834566  -10.228151796976215  49.77770590061603  9.768875085683494  8.802883168019058  19.425327079006742  19.54624809466801  -36.942047728105564  16.83546138541337  120.000000
1.9074000000000004  0.000000  0.000000  0.000000  -36.34811859158688  -1.4353375335500256  -10.99017419757642  49.9229851642883  9.946802560726756  9.244659629205056  28.348206191072336  14.292937109072835  -45.94980725450716  16.51145830363843  120.000000
1.9363000000000004  0.000000  0.000000  0.000000  -36.258651848676024  -1.6023174720718674  -11.629830273241609  50.13119641053883  10.127815556318506  9.724576589339831  46.01052835881751  9.704521295254901  -63.63212881231093  16.154860524915115  120.000000
1.9652000000000003  0.000000  0.000000  0.000000  -36.28086126857225  -1.6468645219721532  -12.135351461303612  50.394781386729  10.304691145367906  10.23539205885912  82.04849193635845  7.131653455513955  -99.63031052441315  15.77492372358808  120.000000
1.9941000000000004  0.000000  0.000000  0.000000  -36.390777015908654  -1.5648518654658636  -12.497300187645004  50.70894479755095  10.472914099502143  10.767579181640945  123.27820737137877  8.394739052047296  -140.76768387580628  15.384600301784479  120.000000
2.0230000000000006  0.000000  0.000000  0.000000  -36.562040467816665  -1.3605711003458218  -12.710936395971581  51.06917736753072  10.628296517443884  11.311027718981563  145.5000847029785  12.084451709157188  -162.84942546105768  15.000482987714053  120.000000
2.0519000000000003  0.000000  0.000000  0.000000  -36.77170466568805  -1.0512598424435367  -12.77788147539539  51.47202538443718  10.765079327189962  11.853579612732036  156.39361217314868  16.359276034490527  -173.55748117646525  14.63634776957212  120.000000
2.0808000000000004  0.000000  0.000000  0.000000  -37.0100477050605  -0.6648553463282814  -12.706260864956894  51.91312327364964  10.878354230361218  12.379723027939125  162.58232611244347  20.565857304229628  -179.5181226000069  14.302354796758568  120.000000
2.1097000000000006  0.000000  0.000000  0.000000  -37.276065500099236  -0.23424450269421954  -12.508580944750497  52.38738466448835  10.965932753174203  12.87232545916269  166.57170579790525  24.46020737765784  176.7591915403548  14.007548293774233  120.000000
2.1386000000000003  0.000000  0.000000  0.000000  -37.56791294100068  0.20860894872925426  -12.19871154579981  52.88920375930936  11.02749661953367  13.315064335967401  169.38643392233976  27.92424498151822  174.24530221615274  13.758146377833066  120.000000
2.1675000000000004  0.000000  0.000000  0.000000  -37.88115725706698  0.637289491935106  -11.791281658813451  53.41176105770907  11.06361462481897  13.695524969612642  171.50652162344  30.89409061522737  172.45639650195707  13.556722693451729  120.000000
2.1964000000000006  0.000000  0.000000  0.000000  -38.211312858391516  1.0318531069015318  -11.301088386202021  53.94588616687718  11.076217169715543  14.004702509928121  173.18384500081967  33.33599043732814  171.13825897638964  13.403366397200069  120.000000
2.2253000000000003  0.000000  0.000000  0.000000  -38.55549995096706  1.3793841035770982  -10.741267512515524  54.47836133556524  11.069844118208014  14.236647876488112  174.56622998728724  35.23653972661664  170.14272095109985  13.295706173368165  120.000000
2.2542000000000004  0.000000  0.000000  0.000000  -38.911156965551825  1.6747510687222855  -10.123554850051246  54.99257885364501  11.051737042708828  14.388526229874119  175.74851979284134  36.59787900413834  169.37613113661027  13.230064690772908  120.000000
2.2831000000000006  0.000000  0.000000  0.000000  -39.275064185703535  1.9191233081455104  -9.459284743048377  55.47271246123153  11.031097646835585  14.459750125676553  176.79389620898502  37.43503339261465  168.77751545352322  13.202119176952772  120.000000
2.3120000000000003  0.000000  0.000000  0.000000  -39.64212493093954  2.1180101263869524  -8.760211706330905  55.90551107353573  11.017049257960382  14.45098543806972  177.74462730955764  37.77401520797261  168.30745666160607  13.207866892824839  120.000000
2.3409000000000004  0.000000  0.000000  0.000000  -40.00503092498046  2.2791707836425927  -8.038250602310208  56.28012306636041  11.017235780683105  14.365535734059556  178.63210331742224  37.64986026184142  167.93773364279997  13.243807836903526  120.000000
2.3698000000000006  0.000000  0.000000  0.000000  -40.355065792575  2.410363339750839  -7.304765025886984  56.587439717883704  11.036749335409148  14.209591915794281  179.48292880705856  37.10354211203357  167.6460343094257  13.305730849048906  120.000000
2.3987000000000003  0.000000  0.000000  0.000000  -40.68288970792944  2.5189958072237175  -6.5710489310941025  56.820867456343564  11.078113644152403  13.991272363867223  -179.6800662727655  36.17968774425932  167.41412745564185  13.389219647359196  120.000000
2.4276000000000004  0.000000  0.000000  0.000000  -40.97983311467893  2.612623455777937  -5.848343137466879  56.976615157831866  11.14049607549365  13.71987599018461  -178.83649046056084  34.92466326289603  167.22682516691313  13.490105189261758  120.000000
2.4565000000000006  0.000000  0.000000  0.000000  -41.23892350253073  2.698314228092396  -5.1479906607599855  57.053330213866644  11.21991825325223  13.406005828981353  -177.96557041176865  33.38513015944618  167.06905776676373  13.604237922198605  120.000000
2.4854000000000003  0.000000  0.000000  0.000000  -41.45498330495262  2.781732429970549  -4.481061304565841  57.05174360989988  11.309658115798067  13.061123969323033  -177.04422006816347  31.60701648589565  166.92376910868578  13.727547212876027  120.000000
2.5143000000000004  0.000000  0.000000  0.000000  -41.62435962484456  2.866792195810433  -3.858144624169382  56.97514881121388  11.401194425125835  12.696626898512935  -176.04731873920687  29.63490331078825  166.77161860271985  13.856030745858527  120.000000
